<?xml version="1.0" encoding="UTF-8"?>
<svg xmlns="http://www.w3.org/2000/svg" viewBox="0 0 1095 1095" width="1095" height="1095">
<path d="M548.5 270.7C549.35 271.56 550.38 272.91 551.53 273.34C552.35 273.66 553.45 273.15 554.31 273.2C556.79 273.35 564.14 276.02 566.31 274.23C567.65 273.12 566.31 273.45 567.5 272C571 275.78 569.94 275.3 573.5 272.7C573.79 273.36 574.36 273.87 574.61 274.55C574.72 274.83 574.29 275.24 574.51 275.45C574.8 275.72 583.99 277.08 584.46 276.96C585.72 276.63 587.35 275.4 588.5 274.82C589.93 275.26 591.3 276.07 592.69 276.43C593.27 276.58 593.87 275.97 594.47 276.08C596.53 276.48 597.07 278.13 597.92 279.5C600.8 276.57 599.01 278.39 601.69 279.02C602.98 279.33 604.98 279.4 606.3 279.5C605.78 279.88 605.06 279.98 604.63 280.45C604.17 280.97 605.95 279.82 606.63 279.91C608.08 280.1 607.6 280.88 607.5 282C611.7 278.83 613.38 281.22 617.69 282.65C620.7 283.65 624.58 283.71 627.5 284.86C629.42 285.62 630.83 286.86 632.69 287.65C634.04 288.22 635.89 288.05 637.31 288.57C638.35 288.95 639.48 290.34 640.69 290.34C641.26 290.34 641.98 289.79 642.5 289.7C645.8 293.22 654.59 296.7 659.5 297.7C659.99 298.15 661.89 300.72 662.69 300.46C663.04 300.35 663.13 299.65 663.5 299.7C664.83 301.53 666.17 303.36 667.5 305.19C667.95 304.98 668.07 304.36 668.47 304.07C669.89 303.03 674.05 305.24 674.83 306.48C675.24 307.14 675.15 308.02 675.5 308.72C678.15 308.91 679.71 309.75 682.46 311.15C683.25 311.56 684.84 313.42 685.69 313.24C686.01 313.18 686.18 312.65 686.5 312.7C687.5 314.31 688.5 315.91 689.5 317.52C690.18 317.5 690.79 316.92 691.46 316.99C692.52 317.11 694.19 319.38 695.03 320.06C697.99 322.46 701.41 323.84 703.5 327C706.48 327.55 705.79 328.6 708.03 330.39C708.38 330.67 708.96 330.43 709.34 330.67C710.79 331.56 711.62 333.45 713.03 334.47C714.79 335.74 716.92 336.52 718.63 337.89C720.17 339.12 720.78 340.78 722.08 342.18C723.75 343.96 725.39 345.73 727.08 347.5C729.18 349.7 732.2 350.94 734.15 353.35C735.58 355.11 737.64 356.87 738.88 358.64C739.71 359.82 739.99 361.29 741 362.5C742.15 363.88 744.1 364.64 745.12 366.03C745.68 366.79 745.43 367.71 746 368.5C746.81 369.63 748.27 370.04 749.2 371.03C750.94 372.88 752.55 375.39 754.21 377.4C755.32 378.73 755.91 380.49 756.86 381.89C759.05 385.13 762.55 388.01 764.12 391.54C764.44 392.28 764.22 393.33 764.61 393.97C765.29 395.07 767.02 395.8 768.07 396.5C768.15 396.79 767.69 397.01 767.67 397.31C767.61 398.26 773.51 406.81 774.28 408.33C774.77 409.3 774.6 410.35 775.24 411.34C776.95 414.03 780.04 416.62 777.81 419.5C781.01 420.72 780.43 421.65 782.24 424.34C782.6 424.88 783.34 425.11 783.62 425.69C783.86 426.18 783.4 426.85 783.68 427.31C784.02 427.89 784.9 427.96 785.3 428.5C784.37 431.67 784.01 431.97 787.3 433.5C787.02 434.26 786.05 434.7 785.93 435.5C785.82 436.15 788.8 439.99 789.59 441.31C790.06 442.09 792.38 444.55 792.05 445.53C791.22 447.99 791.74 444.76 790.11 447.5C790.86 448.57 793.18 450.64 793.22 450.72C793.47 451.19 792.84 451.83 793.07 452.31C793.35 452.93 794.37 453.04 794.58 453.69C795.61 456.9 795.11 461.12 796.03 464.47C796.28 465.38 797.16 465.89 797.38 466.69C797.87 468.48 798.19 471.63 798.15 473.5C798.12 475.26 796.6 476.26 796.35 477.69C796.18 478.67 796.91 479.46 796.81 480.5C796.43 484.54 793.56 487.21 794.24 491.5C791 496.1 787.75 500.7 784.5 505.3C783.37 506.26 782.2 506.15 781.03 506.9C780.31 507.36 780.19 508.48 779.35 508.76C778.75 508.96 778.03 508.33 777.48 508.52C776.26 508.94 775.37 511.54 774 511.82C773.09 512 772.89 510.98 772.5 510.47C770.9 513.74 767.32 515.48 764.5 512.48C762.56 514.69 765.18 514.66 760.5 515.46C760.33 515.24 759.92 515.49 759.69 515.34C759.16 515.01 759.29 511.54 754.72 513.22C753.65 513.61 753.81 515 752.47 515.25C749.72 515.78 750.68 513.71 751.5 512.48C749.83 513 748.17 513.53 746.5 514.06C745.62 513.57 744.18 511.85 743.46 511.6C742.92 511.42 741.45 511.91 740.65 511.74C738.01 511.15 730.36 505.36 728.1 503.43C725.63 501.32 719.34 491.54 717.94 488.41C716.78 485.83 716.52 482.49 715.68 479.75C714.73 476.62 711.77 472.06 711.26 469.98C710.92 468.6 711.24 467.18 710.64 465.75C709.09 462 706.4 458.41 704.54 454.89C703.5 452.92 703.29 450.49 701.89 448.59C699.84 445.82 698.56 442.73 696.59 439.87C694.74 437.19 692.17 435.12 690.14 432.42C688.83 430.68 688.18 428.51 686.77 426.79C683.05 422.26 678.13 418.28 674.63 413.88C673.16 412.03 671.97 409.96 670.17 408.38C668.79 407.16 667.11 406.85 665.69 405.81C663.05 403.87 661.39 400.65 658.95 398.5C654.34 394.46 644.86 388.21 639.33 385.07C637.39 383.97 635.48 383.23 633.6 382.27C631.66 381.28 630.11 379.43 628.15 378.43C626.73 377.71 625.16 377.58 623.75 376.86C622.2 376.06 621.08 374.17 619.5 373.58C609.43 369.83 598.52 367.04 588.34 363.46C585.94 362.61 582.86 362.81 580.31 362.54C577.82 362.27 576.17 360.74 574.28 360.43C573.25 360.27 572.48 361.04 571.47 361.04C569.84 361.05 569.35 360.07 568.07 359.66C565.61 358.87 563.83 360.28 561.5 360.27C559.32 360.26 557.87 358.89 556 358.36C554.32 357.87 547.06 358.12 545.44 358.55C544.83 358.71 544.74 359.34 544.17 359.5C543.16 359.77 536.32 359.8 536.3 359.36C536.26 358.68 539.18 358.54 539.5 358.45C537.12 358.46 532.88 357.27 534.5 359.55C531.83 359.55 529.17 359.55 526.5 359.55C527.73 360.29 528.89 359.93 527.5 360.66C525.31 360.66 523.12 360.66 520.92 360.66C519.19 362.1 518.5 361.98 516.5 360.73C514.17 363.65 508.8 363.54 505.04 364.35C500.82 365.27 496.6 365.65 492.55 366.9C489.59 367.82 486.74 369.41 483.77 370.33C479.25 371.72 474.27 376.54 469.5 375.12C468.93 375.8 468.25 377.03 467.46 377.45C465.51 378.49 461.68 378.38 461.5 380.9C460.51 381.08 458.37 381.02 457.53 381.53C456.19 382.35 454.95 383.98 453.47 384.9C452.34 385.6 450.95 385.75 449.86 386.43C448.68 387.16 448.04 388.58 446.79 389.29C444.47 390.59 441.38 391.13 439.22 392.74C438.47 393.29 438.33 394.22 437.61 394.79C436.78 395.45 435.59 395.42 434.82 396.17C434.09 396.9 434.26 398.08 433.47 398.74C432.93 399.2 431.85 399.1 431.2 399.45C428.9 400.65 427.21 403.14 424.93 404.31C424.64 404.46 423.73 404.42 423.56 404.55C422.31 405.58 421.63 407.61 420.25 408.75C416.44 411.91 411.93 417.51 408.3 420.11C407.68 420.56 406.92 420.32 406.33 420.83C405.56 421.5 405.64 422.57 405.11 423.35C404.34 424.48 403.25 424.92 402.31 425.83C400.55 427.54 399.63 429.83 398.17 431.59C396.38 433.74 387.79 438.23 384.79 440.26C382.04 442.12 381 445.15 377.5 443.98C377.87 447.08 375.09 447.53 372.92 449.4C368.92 452.84 365.47 456.54 361.69 460.19C360.19 461.63 358.54 462.3 356.95 463.51C353.95 465.8 351.55 469.86 349.19 472.74C347.73 474.53 345.22 475.53 343.84 477.31C343.03 478.36 343.04 479.74 342.25 480.78C341.52 481.74 340.28 482.04 339.48 482.91C337.56 485 336.14 487.79 334.67 490.15C333.63 491.83 331.97 492.78 330.79 494.26C326.04 500.2 323.6 508.74 317.5 513.45C318.35 517.11 313.91 519.65 312.54 522.56C312.35 522.96 312.65 524.93 312.57 525.5C310.55 527.66 308.52 529.83 306.5 531.99C300.98 532.09 293.55 532.38 290.31 526.67C289.79 525.75 289.98 524.57 289.51 523.66C289.26 523.15 288.49 522.88 288.47 522.31C288.39 520.29 291.51 516.79 289.32 514.69C287.94 513.37 288.44 514.66 286.7 513.5C287 512.52 288.62 509.21 288.67 508.31C288.73 507.25 287.85 506.54 287.88 505.5C287.92 504.39 288.8 503.61 288.85 502.5C288.89 501.43 288.01 500.61 288.11 499.53C288.21 498.57 289.21 498.26 289.35 497.31C289.52 496.15 288.72 494.84 288.97 493.5C289.19 492.28 290.21 491.43 290.34 490.31C290.49 489.1 289.54 487.92 289.83 486.53C290.02 485.62 290.97 485.18 291.17 484.31C291.74 481.81 291.21 479.1 292.01 476.53C292.29 475.62 293.17 475.25 293.4 474.31C293.59 473.51 292.82 473.37 293.24 472.53C293.95 471.1 295.88 469.89 296.91 468.5C296.5 467.37 295.74 465.74 295.66 464.53C295.62 463.81 296.33 463.03 296.46 462.31C296.73 460.79 296.4 459.02 296.88 457.5C298.87 451.16 301.84 444.15 304.84 438.34C305.16 437.73 304.99 436.91 305.36 436.34C305.79 435.67 307.19 435.09 307.38 434.41C307.79 432.95 304.69 432.91 309.49 430.5C309.41 429.72 308.79 429.21 308.7 428.46C308.34 425.23 311.98 421.66 313.36 419C314.1 417.58 313.81 415.88 314.81 414.54C315.25 413.97 316.12 413.96 316.63 413.34C317.13 412.73 317.26 411.38 317.67 410.66C318.93 408.45 320.81 406.7 321.84 404.34C322.7 402.39 322.9 400.39 324.13 398.54C324.98 397.26 326.7 396.37 327.39 394.97C327.76 394.21 327.52 393.27 327.88 392.46C328.63 390.78 330.76 389.52 331.69 387.95C334.02 384.04 336.65 379.39 339.8 376.03C340.58 375.2 341.77 374.87 342.47 373.97C343.51 372.63 343.88 370.88 345.05 369.55C345.91 368.58 347.39 367.9 348.11 366.89C349.28 365.24 349.82 363.4 351.47 361.91C353.49 360.08 356.08 359.42 355.7 356.5C356.19 356.33 358.48 355.73 358.97 355.39C359.93 354.72 359.97 353.57 360.53 352.63C361.92 350.3 364.97 347 367.18 345.43C369.11 344.05 371.19 343.27 372.92 341.5C375.29 339.07 376.09 336.11 379.83 336.5C380.09 335.91 379.9 335.16 380.2 334.59C380.9 333.24 382.87 332.89 383.97 332.08C388.78 328.54 393.22 321.62 399.5 321.97C401.44 318.53 401.98 317.62 405.5 317C406.5 315.59 407.5 314.17 408.5 312.76C414.18 313.81 411.2 308.42 417.5 310.89C419.38 306.35 420.57 308.14 423.97 305.47C424.69 304.9 424.94 303.95 425.66 303.38C427.02 302.3 431.53 300.8 430.7 303.5C434.21 301.48 432.87 300.85 435.03 298.91C436.22 297.84 442.02 295.87 444 294.7C444.47 294.42 446.14 293.22 446.69 293.33C447.41 293.47 447.81 294.34 448.5 294.58C448.98 294.03 449.14 293.23 449.66 292.71C451.69 290.66 454.9 290.67 457.34 289.56C462.08 287.42 466.8 285.82 471.5 283.99C473.51 283.21 476.34 283.5 478.31 282.75C479.21 282.41 479.66 281.54 480.53 281.2C481.56 280.8 484.41 280.16 485.43 280.41C485.9 280.54 486.09 281.42 486.58 281.34C486.6 281.34 488.41 279.56 488.5 279.47C492.68 281.62 490.03 280.13 492.67 279.15C493.47 278.86 494.01 279.65 494.63 279.44C495.77 279.05 496.25 277.46 497.53 277.02C498.43 276.71 499.14 277.17 500 277.01C502.23 276.59 504.38 275.44 506.53 274.97C508.08 274.63 509.51 275.12 511 274.94C512.19 274.79 513.24 273.85 514.5 274C516.03 274.18 517.13 275.86 518.5 275.91C520.85 276.01 520.47 274.41 521.5 272.84C524.06 274.5 525.42 274.91 528.5 274.82C529.99 273.88 528.99 274.84 527.5 273C530.28 271.87 526.85 272.42 529.5 271.78C530.88 271.45 537.33 274.67 540.46 274.63C543.67 274.59 545.77 271.84 548.5 270.7ZM726.09 752C725.55 750.83 725.01 749.67 724.46 748.5C723.81 750.1 723.15 751.7 722.5 753.3C720.5 752.69 718.5 752.08 716.5 751.46C719 752.34 721.5 753.22 724 754.09C723.36 756.08 722.47 756.03 720.5 757C719.2 758.95 717.78 762.04 715.54 763.12C714.49 763.62 713.48 763.36 712.5 764C711.35 764.75 711.05 766.33 709.97 767.12C709.2 767.68 708.29 767.42 707.5 768C705.64 769.36 704.55 771.97 702.49 773.06C701.73 773.46 700.7 773.2 700.03 773.61C699.09 774.2 698.86 775.41 697.97 776.06C697.37 776.49 696.62 776.23 696.03 776.6C693.2 778.38 690.69 780.71 687.98 782.76C686.43 783.94 684.1 784.16 682.66 785.24C681.55 786.08 680.71 787.35 679.5 788.3C678.17 788.19 676.83 788.08 675.5 787.97C674.83 789.37 674.17 790.76 673.5 792.16C672.5 791.59 671.5 791.03 670.5 790.46C669.06 791.58 669.38 792.52 668.31 793.81C667.23 795.12 662.53 796.99 660.5 799.01C653.91 799.65 648.66 804.96 642.5 805C639.01 807.73 634.79 808.36 631.5 811.3C625.63 810.67 619.9 816.46 614.5 812.88C614.58 815.5 613.17 816.05 610.47 816.41C610.06 816.47 609.15 815.91 608.69 816.09C607.66 816.5 607.69 817.82 606.47 818.06C605.58 818.24 604.69 817.04 603.69 817.09C601.81 817.17 598.91 819.18 597.5 820.3C595.98 819.97 593.09 818.44 591.69 818.66C591.11 818.75 590.87 819.65 590.29 819.73C588.48 819.97 587.88 818.35 587 820.69C586.8 821.22 586.74 821.79 586.5 822.3C582.26 821.45 578.27 818.57 574.12 821.05C573.74 821.08 573.37 821.11 573 821.14C572.83 820.69 572.67 820.25 572.5 819.81C571.67 820.19 570.83 820.58 570 820.96C568.68 820.98 567.36 821 566.05 821.02C565.53 820.68 565.02 820.34 564.5 820C564.31 820.39 564.11 820.77 563.92 821.16C564.28 821.47 564.64 821.78 565 822.09C562.51 825.34 564.73 823.92 561.66 822.5C561.85 822.15 562.36 821.96 562.4 821.56C562.41 821.38 560.58 821.77 560.5 821.77C559.68 821.77 558.65 821.18 557.84 821.55C556.87 821.99 556.11 823.5 555.5 824.3C555.33 823.93 554.51 821.65 554.44 821.58C553.96 821.09 550.31 822.29 549.5 822.25C547.54 822.16 536.87 820.83 535.86 821.54C535.08 822.08 534.91 823.35 534.5 824.13C533.69 823.01 533.72 822.19 532.5 821.36C530.84 820.22 521.76 821.98 519.5 822C520.5 821.27 521.5 820.54 522.5 819.82C517.06 820.07 512.71 817.41 508.5 821.3C505.76 820.64 501.2 820.02 503.5 817.16C502.88 817.34 502.29 817.02 501.69 817.35C501.02 817.72 500.98 819.07 500.31 819.24C499.63 819.41 495.14 816.91 494.31 816.73C491.91 816.23 489.61 816.51 487.5 817.3C487.36 817.02 486.96 816.94 486.79 816.68C486.38 816.05 486.68 814.78 485.81 814.51C484.93 814.24 484.33 815.72 483.52 815.67C482.35 815.6 482.35 814.44 481.31 814.24C480.7 814.12 480.15 814.91 479.53 814.84C476.51 814.5 473.99 812.56 471.31 811.67C470.74 811.48 470.11 812.12 469.53 811.96C468.27 811.62 463.88 808.93 462.5 808C461.86 808.08 461.34 808.69 460.69 808.71C457.1 808.8 451.66 802.95 445.5 803.3C444.17 801.55 442.83 799.81 441.5 798.06C440.21 798.57 440.84 798.84 439.53 799.19C435.44 800.27 429.15 790.74 425.33 790.21C423.99 790.02 422.63 790.93 421.5 791.3C419.32 789.35 415.97 788.34 416.5 785.22C414.64 784.97 414.52 785.91 415.18 784.5C414.79 784.58 412.52 785.1 412.07 785C411.36 784.82 408.23 781.83 407.34 781.24C404.96 779.64 401.8 778.27 399.5 776.49C398.85 775.98 398.65 775.04 397.97 774.53C395.32 772.55 394.69 773.57 393.5 770.18C391.15 770.64 393.86 771.24 392.03 771.07C390.98 770.97 388.72 768.26 388 767.5C386.2 765.6 381.09 760.8 378.97 759.61C378.2 759.18 377.36 759.28 376.54 758.78C374.8 757.72 369.9 751.02 367.5 749C364.77 746.7 360.76 744.57 358.8 741.54C357.47 739.49 356.64 737.45 355 735.5C353.94 734.23 349.27 730.11 348.88 729.46C348.43 728.69 348.81 727.74 348.39 727.03C347.94 726.29 347.07 726.12 346.51 725.5C345.65 724.54 344.15 722.85 343.51 721.83C343.07 721.11 343.42 720.36 342.98 719.66C342.37 718.68 340.83 718.33 340.21 717.46C338.54 715.12 338.36 713.12 338.02 710.5C337.06 710.2 335.81 710.06 335 709.44C333.34 708.16 332.62 704.93 331.74 703.11C330.84 701.26 324.81 690.25 324.66 689.31C324.57 688.7 325.05 688.11 325 687.5C322.27 684.28 322.45 683.42 321.33 679.69C321.1 678.9 320.05 678.38 320.33 677.47C320.45 677.1 321.01 676.89 321 676.5C318.37 674.13 318.37 672.28 317.38 669.31C317.2 668.8 317.6 668.15 317.33 667.69C316.98 667.11 316.1 667.04 315.7 666.5C316.3 663.63 317.79 662.46 317.77 659.5C316.65 658.73 314.19 657.86 313.91 656.47C313.67 655.29 315.31 654.6 315.27 653.53C315.18 650.65 313.05 653.25 314.78 647.5C313.9 646.21 312.51 644.43 312.69 642.62C312.73 642.17 313.45 641.91 313.39 641.46C313.29 640.81 312.34 640.28 312.14 639.48C311.84 638.29 312.57 636.79 312.38 635.69C312.02 633.7 311.36 632.76 311.54 630.5C315.14 626.9 313.78 622.03 310.99 618.5C311.41 616.77 312.73 615.11 312.97 613.47C313.37 610.76 310.47 607.19 311.81 604.53C312.51 603.16 314.41 602.53 315.56 601.5C309.84 595.82 317.86 599.75 313.97 594.5C314.49 593.74 314.64 593 315.38 592.45C315.73 592.19 316.53 593.59 316.71 592.48C316.87 591.49 315.68 591.17 315.72 590.36C315.76 589.44 316.76 589.32 316.89 588.5C316.95 588.12 316.13 587.89 316.27 587.53C316.59 586.76 316.93 587.62 317.5 587C315.75 584.23 317.13 582.03 317.9 579C319.58 572.41 322.01 566.49 324.48 560.31C325.83 556.91 326.85 553.17 328.4 549.69C329.05 548.25 330.25 547.38 331.03 546.11C332.8 543.22 333.86 539.89 335.26 536.81C336.16 534.82 340.3 528.38 341.7 526.22C342.72 524.66 344.41 523.4 345.25 521.76C347.5 517.42 350.85 512.5 354.08 508.64C355.43 507.03 357.42 505.77 358.66 504.17C363.44 497.99 366.37 494.24 372.09 488.61C373.93 486.8 375.44 483.5 377.93 482.36C379.14 481.81 379.57 482.34 380.86 481.5C380.73 480.91 380.16 480.5 380.49 479.82C380.9 478.97 382.12 478.84 382.82 478.32C384.89 476.81 386.27 474.21 388.28 472.82C389.13 472.23 390.19 472.25 391.06 471.66C394.03 469.66 396.35 466.87 399.3 464.83C402.68 462.49 406.71 460.96 410.11 458.63C411.16 457.92 411.48 456.88 412.42 456.13C414.1 454.78 417.55 453.38 419.45 452.57C423 451.05 424.28 448.02 428.5 448.5C430.37 446.01 433.57 444.83 436.5 443.85C437.17 443.63 438.42 443.92 438.97 443.45C439.25 443.22 438.17 443.04 438.2 442.68C438.24 442.04 439.09 441.85 439.47 441.5C443.62 441.04 442.82 440.06 445.68 439.25C446.54 439.01 447.34 439.62 448.22 439.3C448.75 439.11 449.04 438.28 449.6 438.14C450.61 437.89 452.74 438.74 453.45 438.39C453.87 438.19 453.44 436.81 453.42 436.5C453.95 436.57 455.42 437.46 455.55 437.45C457.82 437.39 457.96 432.28 461.5 435.52C463.3 433.25 465.9 432.74 468.69 432.13C474.67 430.83 480.43 429.32 486.5 429.04C487.85 428.98 490.05 428.06 491.33 428.44C491.37 428.45 492.16 429.49 492.5 429.75C495.98 425.76 508.51 427.77 513.5 427.85C517.11 427.9 521.38 427.63 525.01 428.45C530.03 429.59 542.1 434.44 545.76 437.74C548.23 439.97 551.51 443.47 553.16 446.34C553.64 447.17 553.26 448.12 553.76 448.83C554.7 450.18 556.3 450.76 557.21 452.29C560.69 458.15 563.25 466.6 563.06 473.5C563.01 475.37 562.92 478.86 561.89 480.45C560.98 481.84 560.7 479.62 560.5 481.68C562.61 490.35 551.29 503.12 543.98 507.2C542 508.3 540.78 510.48 538.67 511.35C536.29 512.33 532.17 514.1 529.52 513.93C528.51 513.87 526.59 512.19 525.77 512.55C524.99 512.9 524.05 514.81 523.5 515.54C516.34 511.59 520.21 514.66 514.5 514.94C509.72 515.17 512.68 512.75 507.5 515.17C506.59 514.86 505.82 514.86 505.01 514.31C504.76 514.15 504.81 513.58 504.52 513.59C504.1 513.6 502.46 515.13 500.5 514.94C497.76 514.68 496.71 513.49 493.5 513.49C493.76 514.34 493.99 514.92 493.12 515.55C491.42 516.8 488.62 516.08 486.68 516.41C484.24 516.82 482.09 518.41 479.51 518.21C478.57 518.13 478.27 517.74 477.5 517.45C474.81 521.61 473.87 518.25 470.84 519.46C470.17 519.73 470 520.63 469.36 521C468.28 521.63 466.88 521.68 465.73 522.27C464.02 523.13 462.6 524.62 460.84 525.36C459.57 525.9 458.16 525.92 456.89 526.46C453.25 527.98 450.03 531.21 446.61 533.21C445.17 534.05 443.06 534.54 441.8 535.44C440.88 536.1 440.66 537.43 439.73 538.18C433.84 542.97 427.3 547.9 422.83 554.27C418.36 560.63 414.35 568.3 409 573.5C407.56 578.62 406.48 583.65 404.54 589.22C404.11 590.45 402.92 591.52 402.54 592.56C401.87 594.42 402.92 594.5 401.5 595.94C402.48 602.22 400.2 609.1 399.96 615.5C399.86 618.13 400.37 619.66 398.34 621.5C399.29 622.17 399.9 622.27 400.36 623.51C400.77 624.61 400.29 625.59 400.43 626.69C401.11 631.98 401.88 638.26 403.54 643.37C406.57 652.68 410.12 662.78 415.79 670.84C417.01 672.58 418.86 673.78 420.09 675.63C422.47 679.23 423.55 682.98 426.67 685.82C427.39 686.48 428.47 686.7 429.23 687.31C433.6 690.8 436.95 695.62 441.17 699.41C442.93 700.99 444.85 701.56 446.81 702.67C451.3 705.22 455.24 709.03 459.81 711.64C462.31 713.08 464.27 715.24 466.9 716.5C471.01 718.48 475.6 719.57 479.66 721.59C483.02 723.26 486.42 725.25 490.04 726.41C495.41 728.13 501 729.88 506.65 730.83C509.77 731.36 513.28 731.28 516.31 732.06C517.21 732.29 517.62 733.2 518.46 733.46C521.29 734.34 522.53 732.76 525.5 734.73C528.77 733.83 535.98 733.77 539.37 734.7C539.87 734.83 540.18 735.52 540.7 735.51C542.14 735.5 542.85 734.16 544.48 734.27C546.2 734.38 547.53 735.64 549.5 735.57C550.99 735.52 552.24 734.57 553.75 734.4C556.28 734.13 558.85 734.7 561.42 734.47C564.46 734.18 567.52 732.83 570.53 732.22C575.15 731.28 579.82 730.66 584.5 729.7C585.7 729.46 587.34 729.82 588.45 729.47C590.16 728.93 591.83 727.6 593.6 726.99C595.87 726.21 598.47 726.02 600.62 725.07C602.18 724.37 603.1 722.82 604.82 722.31C608.82 721.1 612.45 719.64 616.34 717.8C622.05 715.12 627.32 710.76 633.5 709.51C632.52 707.56 635.55 706.62 637.06 705.54C641.72 702.18 646.88 699.63 651.3 696.48C653.87 694.65 655.64 691.73 658.23 689.77C664.36 685.16 669.4 679.76 674.58 674.08C677.7 670.66 682.04 667.67 684.55 663.98C689.13 657.23 694.4 651.32 699.19 644.68C701.52 641.44 702.57 637.52 704.8 634.24C706.41 631.88 708.23 629.64 709.62 627.11C714.21 618.72 717.62 609.17 725.02 602.66C729.33 598.86 731.77 596.98 736.84 594.33C739.17 593.1 742.62 590.16 745.48 590.65C746.53 590.83 746.68 591.43 747.5 591.96C748.32 591.22 749.49 589.79 750.53 589.4C753.38 588.34 758.16 589.62 761 590.05C768.18 591.14 777.36 594.27 782.16 599.85C783.66 601.59 786.47 602.86 787.56 604.92C788.08 605.89 787.88 607.02 788.53 607.97C789.06 608.74 790.11 608.92 790.66 609.66C792.86 612.64 791.4 613.9 795.25 617.5C795.38 618.72 794.75 620.92 795.1 622.31C795.28 623.04 796.38 623.75 796.7 624.53C797.38 626.17 797.85 629.78 797.89 631.5C797.93 632.86 797.22 634.17 797.08 635.5C796.86 637.55 797.36 639.48 797.4 641.5C797.41 642.16 797.56 642.83 797.4 643.47C796.37 647.58 794.84 646.94 796.3 651.5C793.43 653.04 790.7 654.64 790.73 658.49C790.75 660.37 791.57 661.51 791.24 663.5C789.32 664.18 791.43 664.32 789.58 664.56C788.47 664.71 789.01 662.97 788.39 664.5C787.42 666.78 789.04 664.78 789.05 666.4C789.05 667 787.87 667.06 787.6 667.52C787.43 667.81 788.24 668.1 788.1 668.4C787.5 669.67 786.36 668.7 786.59 670.46C786.76 671.67 786.86 671.22 787.3 672.5C784.97 674.63 784.51 676.4 783.14 679.31C781.62 682.54 779.06 685.63 777.16 688.66C775.67 691.03 774.86 694.16 773.33 696.34C772.85 697.04 771.96 697.33 771.53 698.03C770.67 699.43 770.75 701.37 769.66 702.67C768.08 704.54 765.92 705.89 764.61 708.03C763.6 709.69 763.09 711.79 762.12 713.54C760.8 715.92 757.94 717.57 756.23 719.66C754.96 721.19 752.45 723.27 751.61 725.03C751.25 725.8 751.55 726.66 751.12 727.46C749.8 729.91 745.89 731.81 743.45 732.5C743.59 735.52 744.27 731.6 743.96 734.64C743.76 736.63 739.3 738.95 738 740.5C734.3 744.9 731.22 749.05 726.09 752Z" fill="#fbfbfb" fill-rule="evenodd" stroke="#fbfbfb" stroke-width="0.25" stroke-linejoin="round"/>
<path d="M726.09 752C725.39 752.7 724.7 753.39 724 754.09C721.5 753.22 719 752.34 716.5 751.46C718.5 752.08 720.5 752.69 722.5 753.3C723.15 751.7 723.81 750.1 724.46 748.5C725.01 749.67 725.55 750.83 726.09 752ZM566.05 821.02C565.34 821.07 564.63 821.11 563.92 821.16C564.11 820.77 564.31 820.39 564.5 820C565.02 820.34 565.53 820.68 566.05 821.02ZM573 821.14C572 821.08 571 821.02 570 820.96C570.83 820.58 571.67 820.19 572.5 819.81C572.67 820.25 572.83 820.69 573 821.14Z" fill="#fdfdfd" fill-rule="evenodd" stroke="#fdfdfd" stroke-width="0.25" stroke-linejoin="round"/>
<path d="M512.5 820C512.67 820.17 512.83 820.33 513 820.5C512.83 820.67 512.67 820.83 512.5 821C512.33 820.83 512.17 820.67 512 820.5C512.17 820.33 512.33 820.17 512.5 820ZM563.92 821.16C564.63 821.11 565.34 821.07 566.05 821.02C567.36 821 568.68 820.98 570 820.96C571 821.02 572 821.08 573 821.14C572.83 821.42 572.67 821.71 572.5 822C570 822.03 567.5 822.06 565 822.09C564.64 821.78 564.28 821.47 563.92 821.16ZM574.12 821.05C574.24 821.37 574.37 821.68 574.5 822C574.37 821.68 574.24 821.37 574.12 821.05ZM576.5 821C576.67 821.17 576.83 821.33 577 821.5C576.83 821.67 576.67 821.83 576.5 822C576.33 821.83 576.17 821.67 576 821.5C576.17 821.33 576.33 821.17 576.5 821Z" fill="#ffffff" fill-rule="evenodd" stroke="#ffffff" stroke-width="0.25" stroke-linejoin="round"/>
</svg>